<mxfile host="app.diagrams.net" modified="2022-04-19T07:04:02.141Z" agent="5.0 (Windows NT 10.0; Win64; x64) AppleWebKit/537.36 (KHTML, like Gecko) Chrome/100.0.4896.75 Safari/537.36" etag="gT26T54uXBzzEmqpUqUA" version="17.4.5" type="github">
  <diagram id="kgpKYQtTHZ0yAKxKKP6v" name="Page-1">
    <mxGraphModel dx="1384" dy="684" grid="1" gridSize="10" guides="1" tooltips="1" connect="1" arrows="1" fold="1" page="1" pageScale="1" pageWidth="1100" pageHeight="1100" math="0" shadow="0">
      <root>
        <mxCell id="0" />
        <mxCell id="1" parent="0" />
        <mxCell id="IboOVLr7oUpnxhzywGf7-25" value="管理员" style="rounded=1;whiteSpace=wrap;html=1;sketch=0;" parent="1" vertex="1">
          <mxGeometry x="38" y="1595" width="110" height="40" as="geometry" />
        </mxCell>
        <mxCell id="IboOVLr7oUpnxhzywGf7-26" value="" style="shape=curlyBracket;whiteSpace=wrap;html=1;rounded=1;sketch=0;size=0.4;" parent="1" vertex="1">
          <mxGeometry x="148" y="1450" width="50" height="330" as="geometry" />
        </mxCell>
        <mxCell id="IboOVLr7oUpnxhzywGf7-28" value="表单设计页" style="rounded=0;whiteSpace=wrap;html=1;sketch=0;" parent="1" vertex="1">
          <mxGeometry x="208" y="1430" width="120" height="40" as="geometry" />
        </mxCell>
        <mxCell id="IboOVLr7oUpnxhzywGf7-31" value="" style="shape=curlyBracket;whiteSpace=wrap;html=1;rounded=1;sketch=0;size=0.4;" parent="1" vertex="1">
          <mxGeometry x="328" y="1370" width="50" height="160" as="geometry" />
        </mxCell>
        <mxCell id="IboOVLr7oUpnxhzywGf7-35" value="头部" style="rounded=0;whiteSpace=wrap;html=1;sketch=0;" parent="1" vertex="1">
          <mxGeometry x="388" y="1360" width="120" height="30" as="geometry" />
        </mxCell>
        <mxCell id="IboOVLr7oUpnxhzywGf7-36" value="组件区" style="rounded=0;whiteSpace=wrap;html=1;sketch=0;" parent="1" vertex="1">
          <mxGeometry x="388" y="1410" width="120" height="30" as="geometry" />
        </mxCell>
        <mxCell id="IboOVLr7oUpnxhzywGf7-37" value="属性区" style="rounded=0;whiteSpace=wrap;html=1;sketch=0;" parent="1" vertex="1">
          <mxGeometry x="388" y="1460" width="120" height="30" as="geometry" />
        </mxCell>
        <mxCell id="IboOVLr7oUpnxhzywGf7-38" value="设计区" style="rounded=0;whiteSpace=wrap;html=1;sketch=0;" parent="1" vertex="1">
          <mxGeometry x="388" y="1510" width="120" height="30" as="geometry" />
        </mxCell>
        <mxCell id="IboOVLr7oUpnxhzywGf7-39" value="布局切换，路由地址、预览、保存" style="text;html=1;strokeColor=none;fillColor=none;align=left;verticalAlign=middle;whiteSpace=wrap;rounded=0;sketch=0;" parent="1" vertex="1">
          <mxGeometry x="528" y="1360" width="250" height="30" as="geometry" />
        </mxCell>
        <mxCell id="IboOVLr7oUpnxhzywGf7-40" value="输入组件、选择组件、动态组件" style="text;html=1;strokeColor=none;fillColor=none;align=left;verticalAlign=middle;whiteSpace=wrap;rounded=0;sketch=0;" parent="1" vertex="1">
          <mxGeometry x="528" y="1410" width="250" height="30" as="geometry" />
        </mxCell>
        <mxCell id="IboOVLr7oUpnxhzywGf7-41" value="设置组件和表单属性" style="text;html=1;strokeColor=none;fillColor=none;align=left;verticalAlign=middle;whiteSpace=wrap;rounded=0;sketch=0;" parent="1" vertex="1">
          <mxGeometry x="528" y="1460" width="250" height="30" as="geometry" />
        </mxCell>
        <mxCell id="IboOVLr7oUpnxhzywGf7-42" value="拖拽组件到 设计区，所见即所得" style="text;html=1;strokeColor=none;fillColor=none;align=left;verticalAlign=middle;whiteSpace=wrap;rounded=0;sketch=0;" parent="1" vertex="1">
          <mxGeometry x="528" y="1510" width="250" height="30" as="geometry" />
        </mxCell>
        <mxCell id="IboOVLr7oUpnxhzywGf7-43" value="表单列表页" style="rounded=0;whiteSpace=wrap;html=1;sketch=0;" parent="1" vertex="1">
          <mxGeometry x="208" y="1605" width="120" height="40" as="geometry" />
        </mxCell>
        <mxCell id="IboOVLr7oUpnxhzywGf7-44" value="" style="shape=curlyBracket;whiteSpace=wrap;html=1;rounded=1;sketch=0;size=0.4;" parent="1" vertex="1">
          <mxGeometry x="328" y="1570" width="50" height="110" as="geometry" />
        </mxCell>
        <mxCell id="IboOVLr7oUpnxhzywGf7-45" value="新增按钮" style="rounded=0;whiteSpace=wrap;html=1;sketch=0;" parent="1" vertex="1">
          <mxGeometry x="388" y="1560" width="120" height="30" as="geometry" />
        </mxCell>
        <mxCell id="IboOVLr7oUpnxhzywGf7-46" value="筛选框" style="rounded=0;whiteSpace=wrap;html=1;sketch=0;" parent="1" vertex="1">
          <mxGeometry x="388" y="1610" width="120" height="30" as="geometry" />
        </mxCell>
        <mxCell id="IboOVLr7oUpnxhzywGf7-47" value="数据表格" style="rounded=0;whiteSpace=wrap;html=1;sketch=0;" parent="1" vertex="1">
          <mxGeometry x="388" y="1660" width="120" height="30" as="geometry" />
        </mxCell>
        <mxCell id="IboOVLr7oUpnxhzywGf7-50" value="点击新增，弹出新增表单弹窗，输入基础属性，跳转到表单设计页" style="text;html=1;strokeColor=none;fillColor=none;align=left;verticalAlign=middle;whiteSpace=wrap;rounded=0;sketch=0;" parent="1" vertex="1">
          <mxGeometry x="528" y="1560" width="250" height="30" as="geometry" />
        </mxCell>
        <mxCell id="IboOVLr7oUpnxhzywGf7-51" value="输入筛选条件，查询筛选结果" style="text;html=1;strokeColor=none;fillColor=none;align=left;verticalAlign=middle;whiteSpace=wrap;rounded=0;sketch=0;" parent="1" vertex="1">
          <mxGeometry x="528" y="1610" width="250" height="30" as="geometry" />
        </mxCell>
        <mxCell id="IboOVLr7oUpnxhzywGf7-52" value="展示现有表单" style="text;html=1;strokeColor=none;fillColor=none;align=left;verticalAlign=middle;whiteSpace=wrap;rounded=0;sketch=0;" parent="1" vertex="1">
          <mxGeometry x="528" y="1660" width="250" height="30" as="geometry" />
        </mxCell>
        <mxCell id="IboOVLr7oUpnxhzywGf7-53" value="提交列表页" style="rounded=0;whiteSpace=wrap;html=1;sketch=0;" parent="1" vertex="1">
          <mxGeometry x="208" y="1755" width="120" height="40" as="geometry" />
        </mxCell>
        <mxCell id="IboOVLr7oUpnxhzywGf7-54" value="" style="shape=curlyBracket;whiteSpace=wrap;html=1;rounded=1;sketch=0;size=0.4;" parent="1" vertex="1">
          <mxGeometry x="328" y="1720" width="50" height="110" as="geometry" />
        </mxCell>
        <mxCell id="IboOVLr7oUpnxhzywGf7-55" value="数据表格" style="rounded=0;whiteSpace=wrap;html=1;sketch=0;" parent="1" vertex="1">
          <mxGeometry x="388" y="1710" width="120" height="30" as="geometry" />
        </mxCell>
        <mxCell id="IboOVLr7oUpnxhzywGf7-56" value="审核" style="rounded=0;whiteSpace=wrap;html=1;sketch=0;" parent="1" vertex="1">
          <mxGeometry x="388" y="1760" width="120" height="30" as="geometry" />
        </mxCell>
        <mxCell id="IboOVLr7oUpnxhzywGf7-57" value="编辑" style="rounded=0;whiteSpace=wrap;html=1;sketch=0;" parent="1" vertex="1">
          <mxGeometry x="388" y="1810" width="120" height="30" as="geometry" />
        </mxCell>
        <mxCell id="IboOVLr7oUpnxhzywGf7-59" value="展示用户提交的数据" style="text;html=1;strokeColor=none;fillColor=none;align=left;verticalAlign=middle;whiteSpace=wrap;rounded=0;sketch=0;" parent="1" vertex="1">
          <mxGeometry x="528" y="1710" width="250" height="30" as="geometry" />
        </mxCell>
        <mxCell id="IboOVLr7oUpnxhzywGf7-60" value="管理员审核提交数据" style="text;html=1;strokeColor=none;fillColor=none;align=left;verticalAlign=middle;whiteSpace=wrap;rounded=0;sketch=0;" parent="1" vertex="1">
          <mxGeometry x="528" y="1760" width="250" height="30" as="geometry" />
        </mxCell>
        <mxCell id="IboOVLr7oUpnxhzywGf7-61" value="跳转到预览页，编辑表单数据" style="text;html=1;strokeColor=none;fillColor=none;align=left;verticalAlign=middle;whiteSpace=wrap;rounded=0;sketch=0;" parent="1" vertex="1">
          <mxGeometry x="528" y="1810" width="250" height="30" as="geometry" />
        </mxCell>
        <mxCell id="IboOVLr7oUpnxhzywGf7-64" value="普通用户" style="rounded=1;whiteSpace=wrap;html=1;sketch=0;" parent="1" vertex="1">
          <mxGeometry x="38" y="1920" width="110" height="40" as="geometry" />
        </mxCell>
        <mxCell id="IboOVLr7oUpnxhzywGf7-65" value="" style="shape=curlyBracket;whiteSpace=wrap;html=1;rounded=1;sketch=0;size=0.4;" parent="1" vertex="1">
          <mxGeometry x="148" y="1890" width="50" height="90" as="geometry" />
        </mxCell>
        <mxCell id="IboOVLr7oUpnxhzywGf7-66" value="表单列表页" style="rounded=0;whiteSpace=wrap;html=1;sketch=0;" parent="1" vertex="1">
          <mxGeometry x="208" y="1880" width="120" height="40" as="geometry" />
        </mxCell>
        <mxCell id="IboOVLr7oUpnxhzywGf7-72" value="展示自己能有权限填写的表单" style="text;html=1;strokeColor=none;fillColor=none;align=left;verticalAlign=middle;whiteSpace=wrap;rounded=0;sketch=0;" parent="1" vertex="1">
          <mxGeometry x="348" y="1885" width="250" height="30" as="geometry" />
        </mxCell>
        <mxCell id="IboOVLr7oUpnxhzywGf7-76" value="表单填写页" style="rounded=0;whiteSpace=wrap;html=1;sketch=0;" parent="1" vertex="1">
          <mxGeometry x="208" y="1950" width="120" height="40" as="geometry" />
        </mxCell>
        <mxCell id="IboOVLr7oUpnxhzywGf7-83" value="填写表单，提交表单" style="text;html=1;strokeColor=none;fillColor=none;align=left;verticalAlign=middle;whiteSpace=wrap;rounded=0;sketch=0;" parent="1" vertex="1">
          <mxGeometry x="348" y="1955" width="250" height="30" as="geometry" />
        </mxCell>
        <mxCell id="l4G0WWd9K2WXSb8Dgo5U-1" value="表单系统角色功能" style="text;html=1;strokeColor=none;fillColor=none;align=left;verticalAlign=middle;whiteSpace=wrap;rounded=0;fontSize=18;fontStyle=1" vertex="1" parent="1">
          <mxGeometry x="38" y="1330" width="480" height="30" as="geometry" />
        </mxCell>
        <mxCell id="l4G0WWd9K2WXSb8Dgo5U-65" value="" style="rounded=0;whiteSpace=wrap;html=1;fontSize=18;fillColor=#DAE8FC;" vertex="1" parent="1">
          <mxGeometry x="20" y="80" width="1040" height="50" as="geometry" />
        </mxCell>
        <mxCell id="l4G0WWd9K2WXSb8Dgo5U-66" value="" style="rounded=0;whiteSpace=wrap;html=1;fontSize=18;fillColor=#DAE8FC;" vertex="1" parent="1">
          <mxGeometry x="20" y="130" width="40" height="1080" as="geometry" />
        </mxCell>
        <mxCell id="l4G0WWd9K2WXSb8Dgo5U-67" value="" style="rounded=0;whiteSpace=wrap;html=1;fontSize=18;" vertex="1" parent="1">
          <mxGeometry x="60" y="130" width="200" height="1080" as="geometry" />
        </mxCell>
        <mxCell id="l4G0WWd9K2WXSb8Dgo5U-38" value="表单系统流程图" style="text;html=1;strokeColor=none;fillColor=none;align=left;verticalAlign=middle;whiteSpace=wrap;rounded=0;fontSize=18;fontStyle=1" vertex="1" parent="1">
          <mxGeometry x="38" y="90" width="480" height="30" as="geometry" />
        </mxCell>
        <mxCell id="l4G0WWd9K2WXSb8Dgo5U-72" value="" style="rounded=0;whiteSpace=wrap;html=1;fontSize=18;" vertex="1" parent="1">
          <mxGeometry x="260" y="130" width="200" height="1080" as="geometry" />
        </mxCell>
        <mxCell id="l4G0WWd9K2WXSb8Dgo5U-73" value="" style="rounded=0;whiteSpace=wrap;html=1;fontSize=18;" vertex="1" parent="1">
          <mxGeometry x="460" y="130" width="200" height="1080" as="geometry" />
        </mxCell>
        <mxCell id="l4G0WWd9K2WXSb8Dgo5U-74" value="" style="rounded=0;whiteSpace=wrap;html=1;fontSize=18;" vertex="1" parent="1">
          <mxGeometry x="660" y="130" width="200" height="1080" as="geometry" />
        </mxCell>
        <mxCell id="l4G0WWd9K2WXSb8Dgo5U-75" value="" style="rounded=0;whiteSpace=wrap;html=1;fontSize=18;" vertex="1" parent="1">
          <mxGeometry x="860" y="130" width="200" height="1080" as="geometry" />
        </mxCell>
        <mxCell id="l4G0WWd9K2WXSb8Dgo5U-76" value="&lt;font style=&quot;font-size: 14px&quot;&gt;管理员&lt;/font&gt;" style="rounded=0;whiteSpace=wrap;html=1;fontSize=14;fillColor=#DAE8FC;" vertex="1" parent="1">
          <mxGeometry x="60" y="130" width="200" height="40" as="geometry" />
        </mxCell>
        <mxCell id="l4G0WWd9K2WXSb8Dgo5U-81" value="&lt;font style=&quot;font-size: 14px&quot;&gt;普通用户&lt;/font&gt;" style="rounded=0;whiteSpace=wrap;html=1;fontSize=14;fillColor=#DAE8FC;" vertex="1" parent="1">
          <mxGeometry x="260" y="130" width="200" height="40" as="geometry" />
        </mxCell>
        <mxCell id="l4G0WWd9K2WXSb8Dgo5U-82" value="&lt;font style=&quot;font-size: 14px&quot;&gt;节点负责人1&lt;/font&gt;" style="rounded=0;whiteSpace=wrap;html=1;fontSize=14;fillColor=#DAE8FC;" vertex="1" parent="1">
          <mxGeometry x="460" y="130" width="200" height="40" as="geometry" />
        </mxCell>
        <mxCell id="l4G0WWd9K2WXSb8Dgo5U-83" value="节点负责人2" style="rounded=0;whiteSpace=wrap;html=1;fontSize=14;fillColor=#DAE8FC;" vertex="1" parent="1">
          <mxGeometry x="660" y="130" width="200" height="40" as="geometry" />
        </mxCell>
        <mxCell id="l4G0WWd9K2WXSb8Dgo5U-84" value="最终负责人" style="rounded=0;whiteSpace=wrap;html=1;fontSize=14;fillColor=#DAE8FC;" vertex="1" parent="1">
          <mxGeometry x="860" y="130" width="200" height="40" as="geometry" />
        </mxCell>
        <mxCell id="l4G0WWd9K2WXSb8Dgo5U-87" value="" style="edgeStyle=orthogonalEdgeStyle;rounded=0;sketch=0;jumpStyle=none;orthogonalLoop=1;jettySize=auto;html=1;shadow=0;fontSize=12;" edge="1" parent="1" source="l4G0WWd9K2WXSb8Dgo5U-85">
          <mxGeometry relative="1" as="geometry">
            <mxPoint x="160" y="250" as="targetPoint" />
          </mxGeometry>
        </mxCell>
        <mxCell id="l4G0WWd9K2WXSb8Dgo5U-85" value="&lt;font style=&quot;font-size: 12px&quot;&gt;开始&lt;/font&gt;" style="rounded=1;whiteSpace=wrap;html=1;fontSize=12;fillColor=#DAE8FC;" vertex="1" parent="1">
          <mxGeometry x="115" y="190" width="90" height="30" as="geometry" />
        </mxCell>
        <mxCell id="l4G0WWd9K2WXSb8Dgo5U-94" style="edgeStyle=orthogonalEdgeStyle;rounded=0;sketch=0;jumpStyle=none;orthogonalLoop=1;jettySize=auto;html=1;exitX=1;exitY=0.5;exitDx=0;exitDy=0;entryX=0;entryY=0.5;entryDx=0;entryDy=0;shadow=0;fontSize=12;" edge="1" parent="1" source="l4G0WWd9K2WXSb8Dgo5U-89" target="l4G0WWd9K2WXSb8Dgo5U-93">
          <mxGeometry relative="1" as="geometry" />
        </mxCell>
        <mxCell id="l4G0WWd9K2WXSb8Dgo5U-89" value="发布表单" style="rounded=0;whiteSpace=wrap;html=1;fontSize=12;fillColor=#DAE8FC;" vertex="1" parent="1">
          <mxGeometry x="110" y="310" width="100" height="30" as="geometry" />
        </mxCell>
        <mxCell id="l4G0WWd9K2WXSb8Dgo5U-90" value="" style="edgeStyle=orthogonalEdgeStyle;rounded=0;sketch=0;jumpStyle=none;orthogonalLoop=1;jettySize=auto;html=1;shadow=0;fontSize=12;" edge="1" parent="1">
          <mxGeometry relative="1" as="geometry">
            <mxPoint x="159.5" y="280" as="sourcePoint" />
            <mxPoint x="159.5" y="310" as="targetPoint" />
          </mxGeometry>
        </mxCell>
        <mxCell id="l4G0WWd9K2WXSb8Dgo5U-92" value="&lt;span&gt;设计表单&lt;/span&gt;" style="shape=process;whiteSpace=wrap;html=1;backgroundOutline=1;fontSize=12;fillColor=#DAE8FC;" vertex="1" parent="1">
          <mxGeometry x="110" y="250" width="100" height="30" as="geometry" />
        </mxCell>
        <mxCell id="l4G0WWd9K2WXSb8Dgo5U-99" style="edgeStyle=orthogonalEdgeStyle;rounded=0;sketch=0;jumpStyle=none;orthogonalLoop=1;jettySize=auto;html=1;exitX=1;exitY=0.5;exitDx=0;exitDy=0;entryX=0.5;entryY=0;entryDx=0;entryDy=0;shadow=0;fontSize=12;" edge="1" parent="1" source="l4G0WWd9K2WXSb8Dgo5U-93" target="l4G0WWd9K2WXSb8Dgo5U-95">
          <mxGeometry relative="1" as="geometry" />
        </mxCell>
        <mxCell id="l4G0WWd9K2WXSb8Dgo5U-93" value="&lt;span&gt;填写表单&lt;/span&gt;" style="shape=process;whiteSpace=wrap;html=1;backgroundOutline=1;fontSize=12;fillColor=#DAE8FC;" vertex="1" parent="1">
          <mxGeometry x="310" y="310" width="100" height="30" as="geometry" />
        </mxCell>
        <mxCell id="l4G0WWd9K2WXSb8Dgo5U-98" style="edgeStyle=orthogonalEdgeStyle;rounded=0;sketch=0;jumpStyle=none;orthogonalLoop=1;jettySize=auto;html=1;exitX=0.5;exitY=1;exitDx=0;exitDy=0;entryX=0.5;entryY=0;entryDx=0;entryDy=0;shadow=0;fontSize=12;" edge="1" parent="1" source="l4G0WWd9K2WXSb8Dgo5U-95" target="l4G0WWd9K2WXSb8Dgo5U-97">
          <mxGeometry relative="1" as="geometry" />
        </mxCell>
        <mxCell id="l4G0WWd9K2WXSb8Dgo5U-95" value="&lt;span&gt;审核&lt;/span&gt;" style="shape=process;whiteSpace=wrap;html=1;backgroundOutline=1;fontSize=12;fillColor=#DAE8FC;" vertex="1" parent="1">
          <mxGeometry x="510" y="350" width="100" height="30" as="geometry" />
        </mxCell>
        <mxCell id="l4G0WWd9K2WXSb8Dgo5U-101" value="否" style="edgeStyle=orthogonalEdgeStyle;rounded=0;sketch=0;jumpStyle=none;orthogonalLoop=1;jettySize=auto;html=1;exitX=0;exitY=0.5;exitDx=0;exitDy=0;entryX=1;entryY=0.5;entryDx=0;entryDy=0;shadow=0;fontSize=12;" edge="1" parent="1" source="l4G0WWd9K2WXSb8Dgo5U-97" target="l4G0WWd9K2WXSb8Dgo5U-100">
          <mxGeometry relative="1" as="geometry" />
        </mxCell>
        <mxCell id="l4G0WWd9K2WXSb8Dgo5U-104" value="是" style="edgeStyle=orthogonalEdgeStyle;rounded=0;sketch=0;jumpStyle=none;orthogonalLoop=1;jettySize=auto;html=1;exitX=0.5;exitY=1;exitDx=0;exitDy=0;entryX=0.5;entryY=0;entryDx=0;entryDy=0;shadow=0;fontSize=12;" edge="1" parent="1" source="l4G0WWd9K2WXSb8Dgo5U-97" target="l4G0WWd9K2WXSb8Dgo5U-103">
          <mxGeometry relative="1" as="geometry" />
        </mxCell>
        <mxCell id="l4G0WWd9K2WXSb8Dgo5U-97" value="审核通过" style="rhombus;whiteSpace=wrap;html=1;fontSize=12;fillColor=#DAE8FC;" vertex="1" parent="1">
          <mxGeometry x="520" y="415" width="80" height="60" as="geometry" />
        </mxCell>
        <mxCell id="l4G0WWd9K2WXSb8Dgo5U-102" style="edgeStyle=orthogonalEdgeStyle;rounded=0;sketch=0;jumpStyle=none;orthogonalLoop=1;jettySize=auto;html=1;exitX=0.5;exitY=0;exitDx=0;exitDy=0;entryX=0;entryY=0.5;entryDx=0;entryDy=0;shadow=0;fontSize=12;" edge="1" parent="1" source="l4G0WWd9K2WXSb8Dgo5U-100" target="l4G0WWd9K2WXSb8Dgo5U-95">
          <mxGeometry relative="1" as="geometry" />
        </mxCell>
        <mxCell id="l4G0WWd9K2WXSb8Dgo5U-100" value="&lt;span&gt;编辑表单&lt;/span&gt;" style="shape=process;whiteSpace=wrap;html=1;backgroundOutline=1;fontSize=12;fillColor=#DAE8FC;" vertex="1" parent="1">
          <mxGeometry x="310" y="430" width="100" height="30" as="geometry" />
        </mxCell>
        <mxCell id="l4G0WWd9K2WXSb8Dgo5U-106" value="是" style="edgeStyle=orthogonalEdgeStyle;rounded=0;sketch=0;jumpStyle=none;orthogonalLoop=1;jettySize=auto;html=1;exitX=0.5;exitY=1;exitDx=0;exitDy=0;entryX=0.5;entryY=0;entryDx=0;entryDy=0;shadow=0;fontSize=12;" edge="1" parent="1" source="l4G0WWd9K2WXSb8Dgo5U-103" target="l4G0WWd9K2WXSb8Dgo5U-105">
          <mxGeometry relative="1" as="geometry" />
        </mxCell>
        <mxCell id="l4G0WWd9K2WXSb8Dgo5U-110" style="edgeStyle=orthogonalEdgeStyle;rounded=0;sketch=0;jumpStyle=none;orthogonalLoop=1;jettySize=auto;html=1;exitX=1;exitY=0.5;exitDx=0;exitDy=0;entryX=0.5;entryY=0;entryDx=0;entryDy=0;shadow=0;fontSize=12;" edge="1" parent="1" source="l4G0WWd9K2WXSb8Dgo5U-103" target="l4G0WWd9K2WXSb8Dgo5U-108">
          <mxGeometry relative="1" as="geometry" />
        </mxCell>
        <mxCell id="l4G0WWd9K2WXSb8Dgo5U-111" value="否" style="edgeLabel;html=1;align=center;verticalAlign=middle;resizable=0;points=[];fontSize=12;" vertex="1" connectable="0" parent="l4G0WWd9K2WXSb8Dgo5U-110">
          <mxGeometry x="-0.1791" y="3" relative="1" as="geometry">
            <mxPoint as="offset" />
          </mxGeometry>
        </mxCell>
        <mxCell id="l4G0WWd9K2WXSb8Dgo5U-103" value="有要填写&lt;br&gt;的表单项" style="rhombus;whiteSpace=wrap;html=1;fontSize=12;fillColor=#DAE8FC;" vertex="1" parent="1">
          <mxGeometry x="520" y="520" width="80" height="60" as="geometry" />
        </mxCell>
        <mxCell id="l4G0WWd9K2WXSb8Dgo5U-109" style="edgeStyle=orthogonalEdgeStyle;rounded=0;sketch=0;jumpStyle=none;orthogonalLoop=1;jettySize=auto;html=1;exitX=1;exitY=0.5;exitDx=0;exitDy=0;entryX=0;entryY=0.5;entryDx=0;entryDy=0;shadow=0;fontSize=12;" edge="1" parent="1" source="l4G0WWd9K2WXSb8Dgo5U-105" target="l4G0WWd9K2WXSb8Dgo5U-108">
          <mxGeometry relative="1" as="geometry" />
        </mxCell>
        <mxCell id="l4G0WWd9K2WXSb8Dgo5U-105" value="&lt;span&gt;填写表单&lt;/span&gt;" style="shape=process;whiteSpace=wrap;html=1;backgroundOutline=1;fontSize=12;fillColor=#DAE8FC;" vertex="1" parent="1">
          <mxGeometry x="510" y="620" width="100" height="30" as="geometry" />
        </mxCell>
        <mxCell id="l4G0WWd9K2WXSb8Dgo5U-115" style="edgeStyle=orthogonalEdgeStyle;rounded=0;sketch=0;jumpStyle=none;orthogonalLoop=1;jettySize=auto;html=1;exitX=0.5;exitY=1;exitDx=0;exitDy=0;entryX=0.5;entryY=0;entryDx=0;entryDy=0;shadow=0;fontSize=12;" edge="1" parent="1" source="l4G0WWd9K2WXSb8Dgo5U-108" target="l4G0WWd9K2WXSb8Dgo5U-112">
          <mxGeometry relative="1" as="geometry" />
        </mxCell>
        <mxCell id="l4G0WWd9K2WXSb8Dgo5U-108" value="&lt;span&gt;审核&lt;/span&gt;" style="shape=process;whiteSpace=wrap;html=1;backgroundOutline=1;fontSize=12;fillColor=#DAE8FC;" vertex="1" parent="1">
          <mxGeometry x="710" y="620" width="100" height="30" as="geometry" />
        </mxCell>
        <mxCell id="l4G0WWd9K2WXSb8Dgo5U-116" value="是" style="edgeStyle=orthogonalEdgeStyle;rounded=0;sketch=0;jumpStyle=none;orthogonalLoop=1;jettySize=auto;html=1;exitX=0.5;exitY=1;exitDx=0;exitDy=0;entryX=0.5;entryY=0;entryDx=0;entryDy=0;shadow=0;fontSize=12;" edge="1" parent="1" source="l4G0WWd9K2WXSb8Dgo5U-112" target="l4G0WWd9K2WXSb8Dgo5U-113">
          <mxGeometry relative="1" as="geometry" />
        </mxCell>
        <mxCell id="l4G0WWd9K2WXSb8Dgo5U-118" style="edgeStyle=orthogonalEdgeStyle;rounded=0;sketch=0;jumpStyle=none;orthogonalLoop=1;jettySize=auto;html=1;exitX=0;exitY=0.5;exitDx=0;exitDy=0;entryX=0.5;entryY=1;entryDx=0;entryDy=0;shadow=0;fontSize=12;" edge="1" parent="1" source="l4G0WWd9K2WXSb8Dgo5U-112" target="l4G0WWd9K2WXSb8Dgo5U-100">
          <mxGeometry relative="1" as="geometry" />
        </mxCell>
        <mxCell id="l4G0WWd9K2WXSb8Dgo5U-119" value="否" style="edgeLabel;html=1;align=center;verticalAlign=middle;resizable=0;points=[];fontSize=12;" vertex="1" connectable="0" parent="l4G0WWd9K2WXSb8Dgo5U-118">
          <mxGeometry x="-0.5335" relative="1" as="geometry">
            <mxPoint as="offset" />
          </mxGeometry>
        </mxCell>
        <mxCell id="l4G0WWd9K2WXSb8Dgo5U-112" value="审核通过" style="rhombus;whiteSpace=wrap;html=1;fontSize=12;fillColor=#DAE8FC;" vertex="1" parent="1">
          <mxGeometry x="720" y="690" width="80" height="60" as="geometry" />
        </mxCell>
        <mxCell id="l4G0WWd9K2WXSb8Dgo5U-117" value="是" style="edgeStyle=orthogonalEdgeStyle;rounded=0;sketch=0;jumpStyle=none;orthogonalLoop=1;jettySize=auto;html=1;exitX=0.5;exitY=1;exitDx=0;exitDy=0;entryX=0.5;entryY=0;entryDx=0;entryDy=0;shadow=0;fontSize=12;" edge="1" parent="1" source="l4G0WWd9K2WXSb8Dgo5U-113" target="l4G0WWd9K2WXSb8Dgo5U-114">
          <mxGeometry relative="1" as="geometry" />
        </mxCell>
        <mxCell id="l4G0WWd9K2WXSb8Dgo5U-128" style="edgeStyle=orthogonalEdgeStyle;rounded=0;sketch=0;jumpStyle=none;orthogonalLoop=1;jettySize=auto;html=1;exitX=1;exitY=0.5;exitDx=0;exitDy=0;entryX=0.5;entryY=0;entryDx=0;entryDy=0;shadow=0;fontSize=12;" edge="1" parent="1" source="l4G0WWd9K2WXSb8Dgo5U-113" target="l4G0WWd9K2WXSb8Dgo5U-120">
          <mxGeometry relative="1" as="geometry" />
        </mxCell>
        <mxCell id="l4G0WWd9K2WXSb8Dgo5U-129" value="否" style="edgeLabel;html=1;align=center;verticalAlign=middle;resizable=0;points=[];fontSize=12;" vertex="1" connectable="0" parent="l4G0WWd9K2WXSb8Dgo5U-128">
          <mxGeometry x="-0.0435" y="-1" relative="1" as="geometry">
            <mxPoint as="offset" />
          </mxGeometry>
        </mxCell>
        <mxCell id="l4G0WWd9K2WXSb8Dgo5U-113" value="有要填写&lt;br&gt;的表单项" style="rhombus;whiteSpace=wrap;html=1;fontSize=12;fillColor=#DAE8FC;" vertex="1" parent="1">
          <mxGeometry x="720" y="795" width="80" height="60" as="geometry" />
        </mxCell>
        <mxCell id="l4G0WWd9K2WXSb8Dgo5U-127" style="edgeStyle=orthogonalEdgeStyle;rounded=0;sketch=0;jumpStyle=none;orthogonalLoop=1;jettySize=auto;html=1;exitX=1;exitY=0.5;exitDx=0;exitDy=0;entryX=0;entryY=0.5;entryDx=0;entryDy=0;shadow=0;fontSize=12;" edge="1" parent="1" source="l4G0WWd9K2WXSb8Dgo5U-114" target="l4G0WWd9K2WXSb8Dgo5U-120">
          <mxGeometry relative="1" as="geometry" />
        </mxCell>
        <mxCell id="l4G0WWd9K2WXSb8Dgo5U-114" value="&lt;span&gt;填写表单&lt;/span&gt;" style="shape=process;whiteSpace=wrap;html=1;backgroundOutline=1;fontSize=12;fillColor=#DAE8FC;" vertex="1" parent="1">
          <mxGeometry x="710" y="895" width="100" height="30" as="geometry" />
        </mxCell>
        <mxCell id="l4G0WWd9K2WXSb8Dgo5U-126" style="edgeStyle=orthogonalEdgeStyle;rounded=0;sketch=0;jumpStyle=none;orthogonalLoop=1;jettySize=auto;html=1;exitX=0.5;exitY=1;exitDx=0;exitDy=0;entryX=0.5;entryY=0;entryDx=0;entryDy=0;shadow=0;fontSize=12;" edge="1" parent="1" source="l4G0WWd9K2WXSb8Dgo5U-120" target="l4G0WWd9K2WXSb8Dgo5U-121">
          <mxGeometry relative="1" as="geometry" />
        </mxCell>
        <mxCell id="l4G0WWd9K2WXSb8Dgo5U-120" value="审核" style="shape=process;whiteSpace=wrap;html=1;backgroundOutline=1;fontSize=12;fillColor=#DAE8FC;" vertex="1" parent="1">
          <mxGeometry x="910" y="895" width="100" height="30" as="geometry" />
        </mxCell>
        <mxCell id="l4G0WWd9K2WXSb8Dgo5U-122" style="edgeStyle=orthogonalEdgeStyle;rounded=0;sketch=0;jumpStyle=none;orthogonalLoop=1;jettySize=auto;html=1;exitX=0;exitY=0.5;exitDx=0;exitDy=0;entryX=0.5;entryY=1;entryDx=0;entryDy=0;shadow=0;fontSize=12;" edge="1" parent="1" source="l4G0WWd9K2WXSb8Dgo5U-121" target="l4G0WWd9K2WXSb8Dgo5U-100">
          <mxGeometry relative="1" as="geometry" />
        </mxCell>
        <mxCell id="l4G0WWd9K2WXSb8Dgo5U-123" value="否" style="edgeLabel;html=1;align=center;verticalAlign=middle;resizable=0;points=[];fontSize=12;" vertex="1" connectable="0" parent="l4G0WWd9K2WXSb8Dgo5U-122">
          <mxGeometry x="-0.418" y="3" relative="1" as="geometry">
            <mxPoint as="offset" />
          </mxGeometry>
        </mxCell>
        <mxCell id="l4G0WWd9K2WXSb8Dgo5U-125" value="是" style="edgeStyle=orthogonalEdgeStyle;rounded=0;sketch=0;jumpStyle=none;orthogonalLoop=1;jettySize=auto;html=1;exitX=0.5;exitY=1;exitDx=0;exitDy=0;entryX=0.5;entryY=0;entryDx=0;entryDy=0;shadow=0;fontSize=12;" edge="1" parent="1" source="l4G0WWd9K2WXSb8Dgo5U-121" target="l4G0WWd9K2WXSb8Dgo5U-124">
          <mxGeometry relative="1" as="geometry" />
        </mxCell>
        <mxCell id="l4G0WWd9K2WXSb8Dgo5U-121" value="审核通过" style="rhombus;whiteSpace=wrap;html=1;fontSize=12;fillColor=#DAE8FC;" vertex="1" parent="1">
          <mxGeometry x="920" y="960" width="80" height="60" as="geometry" />
        </mxCell>
        <mxCell id="l4G0WWd9K2WXSb8Dgo5U-131" style="edgeStyle=orthogonalEdgeStyle;rounded=0;sketch=0;jumpStyle=none;orthogonalLoop=1;jettySize=auto;html=1;exitX=0.5;exitY=1;exitDx=0;exitDy=0;entryX=0.5;entryY=0;entryDx=0;entryDy=0;shadow=0;fontSize=12;" edge="1" parent="1" source="l4G0WWd9K2WXSb8Dgo5U-124" target="l4G0WWd9K2WXSb8Dgo5U-130">
          <mxGeometry relative="1" as="geometry" />
        </mxCell>
        <mxCell id="l4G0WWd9K2WXSb8Dgo5U-124" value="工作流完成" style="rounded=0;whiteSpace=wrap;html=1;fontSize=12;fillColor=#DAE8FC;" vertex="1" parent="1">
          <mxGeometry x="910" y="1060" width="100" height="30" as="geometry" />
        </mxCell>
        <mxCell id="l4G0WWd9K2WXSb8Dgo5U-130" value="&lt;font style=&quot;font-size: 12px&quot;&gt;结束&lt;/font&gt;" style="rounded=1;whiteSpace=wrap;html=1;fontSize=12;fillColor=#DAE8FC;" vertex="1" parent="1">
          <mxGeometry x="915" y="1130" width="90" height="30" as="geometry" />
        </mxCell>
        <mxCell id="l4G0WWd9K2WXSb8Dgo5U-133" value="&amp;nbsp;· 拖拽表单组件，可视化&lt;br&gt;&amp;nbsp; &amp;nbsp;设计表单&lt;br&gt;&lt;br&gt;&amp;nbsp;· 设置表单属性&lt;br&gt;&amp;nbsp; &amp;nbsp; · 是否是隐藏字段&lt;br&gt;&amp;nbsp; &amp;nbsp; · 在哪个节点展示&lt;br&gt;&amp;nbsp; &amp;nbsp; · 在哪个节点填写&lt;br&gt;&amp;nbsp; &amp;nbsp; · ......" style="shape=note;whiteSpace=wrap;html=1;backgroundOutline=1;darkOpacity=0.05;fontSize=12;fillColor=#fff2cc;strokeColor=#d6b656;align=left;" vertex="1" parent="1">
          <mxGeometry x="80" y="390" width="160" height="130" as="geometry" />
        </mxCell>
        <mxCell id="l4G0WWd9K2WXSb8Dgo5U-136" value="" style="curved=1;endArrow=classic;html=1;rounded=0;shadow=0;sketch=0;fontSize=12;jumpStyle=none;exitX=0;exitY=0;exitDx=0;exitDy=0;exitPerimeter=0;entryX=0;entryY=0.5;entryDx=0;entryDy=0;dashed=1;" edge="1" parent="1" source="l4G0WWd9K2WXSb8Dgo5U-133" target="l4G0WWd9K2WXSb8Dgo5U-92">
          <mxGeometry width="50" height="50" relative="1" as="geometry">
            <mxPoint x="65" y="310" as="sourcePoint" />
            <mxPoint x="115" y="260" as="targetPoint" />
            <Array as="points">
              <mxPoint x="70" y="350" />
              <mxPoint x="80" y="290" />
            </Array>
          </mxGeometry>
        </mxCell>
      </root>
    </mxGraphModel>
  </diagram>
</mxfile>
